<svg viewBox="0 0 80 80" xmlns="http://www.w3.org/2000/svg">
  <rect width="80" height="80" rx="18" fill="#1D9E75"/>
  <line x1="40" y1="56" x2="40" y2="30" stroke="white" stroke-width="2.5" stroke-linecap="round"/>
  <path d="M40 38 C40 38 32 32 28 24 C28 24 36 22 40 30" fill="white"/>
  <path d="M40 33 C40 33 48 27 52 19 C52 19 44 17 40 25" fill="rgba(255,255,255,0.75)"/>
  <path d="M37 50 C32 50 27 47 26 42 C26 42 31 40 35 43" fill="white" opacity="0.4"/>
  <path d="M43 50 C48 50 53 47 54 42 C54 42 49 40 45 43" fill="white" opacity="0.4"/>
  <circle cx="40" cy="57" r="2.5" fill="white"/>
</svg>
