<svg viewBox="0 0 80 80" xmlns="http://www.w3.org/2000/svg">
  <!-- Dark green square background -->
  <rect width="80" height="80" rx="18" fill="#1B3B1D"/>
  <!-- Left leaf -->
  <path d="M40 70 C37 63 16 60 8 47 C17 31 38 48 40 65Z" fill="#4A9E4E"/>
  <!-- Right leaf -->
  <path d="M40 70 C43 63 64 60 72 47 C63 31 42 48 40 65Z" fill="#4A9E4E"/>
  <!-- Center/top leaf -->
  <path d="M40 70 C27 62 24 36 40 12 C56 36 53 62 40 70Z" fill="#4A9E4E"/>
  <!-- Child's hand -->
  <path d="M33 58 C30 58 29 56 29 54 L29 49 C29 47 30 46 32 46
           C33 46 34 46.5 34 48 L34 44 C34 42 35 41 37 41
           C39 41 40 42 40 44 L40 43 C40 41 41 40 43 40
           C45 40 46 41 46 43 L46 44 C46 42 47 41 49 42
           C51 43 51 44 51 46 L51 51 C52 50 53 50 53.5 51
           C54 52 53.5 54 52.5 54 L52 58 C51 60 34 60 33 58Z"
    fill="#D4CEBC"/>
</svg>
